<mxfile host="app.diagrams.net" modified="2023-11-16T01:41:46.245Z" agent="Mozilla/5.0 (Windows NT 10.0; Win64; x64) AppleWebKit/537.36 (KHTML, like Gecko) Chrome/119.0.0.0 Safari/537.36" etag="FE_dwDtQxuuuR6HYSCV3" version="22.1.2" type="google">
  <diagram id="C5RBs43oDa-KdzZeNtuy" name="Page-1">
    <mxGraphModel grid="1" page="1" gridSize="10" guides="1" tooltips="1" connect="1" arrows="1" fold="1" pageScale="1" pageWidth="827" pageHeight="1169" math="0" shadow="0">
      <root>
        <mxCell id="WIyWlLk6GJQsqaUBKTNV-0" />
        <mxCell id="WIyWlLk6GJQsqaUBKTNV-1" parent="WIyWlLk6GJQsqaUBKTNV-0" />
        <mxCell id="YXqo5FMBA3BihBPXuBW1-26" value="" style="edgeStyle=orthogonalEdgeStyle;rounded=0;orthogonalLoop=1;jettySize=auto;html=1;" edge="1" parent="WIyWlLk6GJQsqaUBKTNV-1" source="YXqo5FMBA3BihBPXuBW1-0" target="YXqo5FMBA3BihBPXuBW1-25">
          <mxGeometry relative="1" as="geometry" />
        </mxCell>
        <mxCell id="YXqo5FMBA3BihBPXuBW1-0" value="Iniciar" style="rounded=0;whiteSpace=wrap;html=1;" vertex="1" parent="WIyWlLk6GJQsqaUBKTNV-1">
          <mxGeometry x="45" y="79" width="90" height="40" as="geometry" />
        </mxCell>
        <mxCell id="YXqo5FMBA3BihBPXuBW1-6" value="" style="edgeStyle=orthogonalEdgeStyle;rounded=0;orthogonalLoop=1;jettySize=auto;html=1;" edge="1" parent="WIyWlLk6GJQsqaUBKTNV-1" target="YXqo5FMBA3BihBPXuBW1-5">
          <mxGeometry relative="1" as="geometry">
            <mxPoint x="90" y="190" as="sourcePoint" />
          </mxGeometry>
        </mxCell>
        <mxCell id="YXqo5FMBA3BihBPXuBW1-12" value="" style="edgeStyle=orthogonalEdgeStyle;rounded=0;orthogonalLoop=1;jettySize=auto;html=1;" edge="1" parent="WIyWlLk6GJQsqaUBKTNV-1" source="YXqo5FMBA3BihBPXuBW1-5">
          <mxGeometry relative="1" as="geometry">
            <mxPoint x="90" y="355" as="targetPoint" />
          </mxGeometry>
        </mxCell>
        <mxCell id="YXqo5FMBA3BihBPXuBW1-13" value="" style="edgeStyle=orthogonalEdgeStyle;rounded=0;orthogonalLoop=1;jettySize=auto;html=1;" edge="1" parent="WIyWlLk6GJQsqaUBKTNV-1" source="YXqo5FMBA3BihBPXuBW1-5" target="YXqo5FMBA3BihBPXuBW1-7">
          <mxGeometry relative="1" as="geometry" />
        </mxCell>
        <mxCell id="YXqo5FMBA3BihBPXuBW1-5" value="dados corretos?" style="rhombus;whiteSpace=wrap;html=1;" vertex="1" parent="WIyWlLk6GJQsqaUBKTNV-1">
          <mxGeometry x="50" y="230" width="80" height="80" as="geometry" />
        </mxCell>
        <mxCell id="YXqo5FMBA3BihBPXuBW1-7" value="mensagem de erro" style="rounded=1;whiteSpace=wrap;html=1;" vertex="1" parent="WIyWlLk6GJQsqaUBKTNV-1">
          <mxGeometry x="190" y="240" width="120" height="60" as="geometry" />
        </mxCell>
        <mxCell id="YXqo5FMBA3BihBPXuBW1-9" value="NAO" style="text;html=1;strokeColor=none;fillColor=none;align=center;verticalAlign=middle;whiteSpace=wrap;rounded=0;" vertex="1" parent="WIyWlLk6GJQsqaUBKTNV-1">
          <mxGeometry x="120" y="240" width="60" height="30" as="geometry" />
        </mxCell>
        <mxCell id="YXqo5FMBA3BihBPXuBW1-14" value="SIM" style="text;html=1;strokeColor=none;fillColor=none;align=center;verticalAlign=middle;whiteSpace=wrap;rounded=0;" vertex="1" parent="WIyWlLk6GJQsqaUBKTNV-1">
          <mxGeometry x="40" y="310" width="60" height="30" as="geometry" />
        </mxCell>
        <mxCell id="YXqo5FMBA3BihBPXuBW1-18" value="" style="edgeStyle=orthogonalEdgeStyle;rounded=0;orthogonalLoop=1;jettySize=auto;html=1;" edge="1" parent="WIyWlLk6GJQsqaUBKTNV-1" source="YXqo5FMBA3BihBPXuBW1-15" target="YXqo5FMBA3BihBPXuBW1-16">
          <mxGeometry relative="1" as="geometry" />
        </mxCell>
        <mxCell id="YXqo5FMBA3BihBPXuBW1-15" value="teste no BD" style="rounded=1;whiteSpace=wrap;html=1;" vertex="1" parent="WIyWlLk6GJQsqaUBKTNV-1">
          <mxGeometry x="40" y="360" width="100" height="40" as="geometry" />
        </mxCell>
        <mxCell id="YXqo5FMBA3BihBPXuBW1-20" value="" style="edgeStyle=orthogonalEdgeStyle;rounded=0;orthogonalLoop=1;jettySize=auto;html=1;" edge="1" parent="WIyWlLk6GJQsqaUBKTNV-1" source="YXqo5FMBA3BihBPXuBW1-16" target="YXqo5FMBA3BihBPXuBW1-19">
          <mxGeometry relative="1" as="geometry" />
        </mxCell>
        <mxCell id="YXqo5FMBA3BihBPXuBW1-22" value="" style="edgeStyle=orthogonalEdgeStyle;rounded=0;orthogonalLoop=1;jettySize=auto;html=1;" edge="1" parent="WIyWlLk6GJQsqaUBKTNV-1" source="YXqo5FMBA3BihBPXuBW1-16" target="YXqo5FMBA3BihBPXuBW1-21">
          <mxGeometry relative="1" as="geometry" />
        </mxCell>
        <mxCell id="YXqo5FMBA3BihBPXuBW1-16" value="Existe no BD?" style="rhombus;whiteSpace=wrap;html=1;" vertex="1" parent="WIyWlLk6GJQsqaUBKTNV-1">
          <mxGeometry x="50" y="430" width="80" height="80" as="geometry" />
        </mxCell>
        <mxCell id="YXqo5FMBA3BihBPXuBW1-19" value="mensagem de erro" style="rounded=1;whiteSpace=wrap;html=1;" vertex="1" parent="WIyWlLk6GJQsqaUBKTNV-1">
          <mxGeometry x="190" y="440" width="120" height="60" as="geometry" />
        </mxCell>
        <mxCell id="YXqo5FMBA3BihBPXuBW1-37" value="" style="edgeStyle=orthogonalEdgeStyle;rounded=0;orthogonalLoop=1;jettySize=auto;html=1;" edge="1" parent="WIyWlLk6GJQsqaUBKTNV-1" source="YXqo5FMBA3BihBPXuBW1-21" target="YXqo5FMBA3BihBPXuBW1-36">
          <mxGeometry relative="1" as="geometry" />
        </mxCell>
        <mxCell id="YXqo5FMBA3BihBPXuBW1-21" value="Mensagem de cancelamento Ã© exibida" style="rounded=1;whiteSpace=wrap;html=1;" vertex="1" parent="WIyWlLk6GJQsqaUBKTNV-1">
          <mxGeometry x="30" y="555" width="120" height="60" as="geometry" />
        </mxCell>
        <mxCell id="YXqo5FMBA3BihBPXuBW1-23" value="NAO" style="text;html=1;strokeColor=none;fillColor=none;align=center;verticalAlign=middle;whiteSpace=wrap;rounded=0;" vertex="1" parent="WIyWlLk6GJQsqaUBKTNV-1">
          <mxGeometry x="130" y="440" width="60" height="30" as="geometry" />
        </mxCell>
        <mxCell id="YXqo5FMBA3BihBPXuBW1-24" value="SIM" style="text;html=1;strokeColor=none;fillColor=none;align=center;verticalAlign=middle;whiteSpace=wrap;rounded=0;" vertex="1" parent="WIyWlLk6GJQsqaUBKTNV-1">
          <mxGeometry x="30" y="510" width="60" height="30" as="geometry" />
        </mxCell>
        <mxCell id="YXqo5FMBA3BihBPXuBW1-27" value="" style="edgeStyle=orthogonalEdgeStyle;rounded=0;orthogonalLoop=1;jettySize=auto;html=1;" edge="1" parent="WIyWlLk6GJQsqaUBKTNV-1" source="YXqo5FMBA3BihBPXuBW1-25" target="YXqo5FMBA3BihBPXuBW1-5">
          <mxGeometry relative="1" as="geometry" />
        </mxCell>
        <mxCell id="YXqo5FMBA3BihBPXuBW1-25" value="usuario cicou em Cancelar reserva" style="rounded=1;whiteSpace=wrap;html=1;" vertex="1" parent="WIyWlLk6GJQsqaUBKTNV-1">
          <mxGeometry x="50" y="139" width="80" height="50" as="geometry" />
        </mxCell>
        <mxCell id="YXqo5FMBA3BihBPXuBW1-36" value="Terminar" style="whiteSpace=wrap;html=1;rounded=1;" vertex="1" parent="WIyWlLk6GJQsqaUBKTNV-1">
          <mxGeometry x="30" y="695" width="120" height="60" as="geometry" />
        </mxCell>
        <mxCell id="YXqo5FMBA3BihBPXuBW1-38" value="" style="edgeStyle=none;orthogonalLoop=1;jettySize=auto;html=1;rounded=0;" edge="1" parent="WIyWlLk6GJQsqaUBKTNV-1" source="YXqo5FMBA3BihBPXuBW1-7" target="YXqo5FMBA3BihBPXuBW1-36">
          <mxGeometry width="100" relative="1" as="geometry">
            <mxPoint x="200" y="330" as="sourcePoint" />
            <mxPoint x="350" y="720" as="targetPoint" />
            <Array as="points">
              <mxPoint x="360" y="270" />
              <mxPoint x="360" y="725" />
            </Array>
          </mxGeometry>
        </mxCell>
        <mxCell id="YXqo5FMBA3BihBPXuBW1-40" value="" style="endArrow=none;html=1;rounded=0;" edge="1" parent="WIyWlLk6GJQsqaUBKTNV-1">
          <mxGeometry width="50" height="50" relative="1" as="geometry">
            <mxPoint x="260" y="730" as="sourcePoint" />
            <mxPoint x="260" y="500" as="targetPoint" />
          </mxGeometry>
        </mxCell>
      </root>
    </mxGraphModel>
  </diagram>
</mxfile>
